<mxfile host="app.diagrams.net" modified="2024-04-09T14:47:11.959Z" agent="Mozilla/5.0 (Macintosh; Intel Mac OS X 10_15_7) AppleWebKit/537.36 (KHTML, like Gecko) Chrome/123.0.0.0 Safari/537.36" etag="rQFeiaAOYJIkXi-q2GJJ" version="24.2.3" type="github">
  <diagram name="Page-1" id="aJdUUnHXH2kh8VmLgzIS">
    <mxGraphModel dx="1243" dy="831" grid="1" gridSize="10" guides="1" tooltips="1" connect="1" arrows="1" fold="1" page="1" pageScale="1" pageWidth="850" pageHeight="1100" math="0" shadow="0">
      <root>
        <mxCell id="0" />
        <mxCell id="1" parent="0" />
        <mxCell id="u_6Jhnb3s3K0sa4x8jdL-8" value="" style="rounded=1;whiteSpace=wrap;html=1;dashed=1;strokeWidth=2;fillColor=none;strokeColor=#3399FF;" parent="1" vertex="1">
          <mxGeometry x="157.69" y="590" width="290.77" height="130" as="geometry" />
        </mxCell>
        <mxCell id="bp-vKxV_hlAgK0k2TYMo-3" value="" style="rounded=1;whiteSpace=wrap;html=1;dashed=1;strokeWidth=2;fillColor=none;fontColor=#000000;strokeColor=#3399FF;" parent="1" vertex="1">
          <mxGeometry x="240" y="350" width="280" height="148.67" as="geometry" />
        </mxCell>
        <mxCell id="IRDAZbnhrmjxmqdq8_ro-2" value="DNS" style="image;aspect=fixed;html=1;points=[];align=center;fontSize=12;image=img/lib/azure2/networking/DNS_Zones.svg;" parent="1" vertex="1">
          <mxGeometry x="510" y="70" width="64" height="64" as="geometry" />
        </mxCell>
        <mxCell id="IRDAZbnhrmjxmqdq8_ro-3" value="Client" style="sketch=0;outlineConnect=0;fontColor=#232F3E;gradientColor=none;strokeColor=#232F3E;fillColor=#ffffff;dashed=0;verticalLabelPosition=bottom;verticalAlign=top;align=center;html=1;fontSize=12;fontStyle=0;aspect=fixed;shape=mxgraph.aws4.resourceIcon;resIcon=mxgraph.aws4.client;" parent="1" vertex="1">
          <mxGeometry x="350" y="70" width="60" height="60" as="geometry" />
        </mxCell>
        <mxCell id="IRDAZbnhrmjxmqdq8_ro-4" value="" style="endArrow=classic;html=1;rounded=0;" parent="1" edge="1">
          <mxGeometry width="50" height="50" relative="1" as="geometry">
            <mxPoint x="420" y="80" as="sourcePoint" />
            <mxPoint x="500" y="80" as="targetPoint" />
          </mxGeometry>
        </mxCell>
        <mxCell id="IRDAZbnhrmjxmqdq8_ro-5" value="" style="endArrow=classic;html=1;rounded=0;" parent="1" edge="1">
          <mxGeometry width="50" height="50" relative="1" as="geometry">
            <mxPoint x="500" y="120" as="sourcePoint" />
            <mxPoint x="410" y="120" as="targetPoint" />
          </mxGeometry>
        </mxCell>
        <mxCell id="IRDAZbnhrmjxmqdq8_ro-6" value="domain.com" style="text;html=1;align=center;verticalAlign=middle;whiteSpace=wrap;rounded=0;" parent="1" vertex="1">
          <mxGeometry x="425" y="57" width="60" height="30" as="geometry" />
        </mxCell>
        <mxCell id="IRDAZbnhrmjxmqdq8_ro-7" value="IP address" style="text;html=1;align=center;verticalAlign=middle;whiteSpace=wrap;rounded=0;" parent="1" vertex="1">
          <mxGeometry x="425" y="98" width="60" height="30" as="geometry" />
        </mxCell>
        <mxCell id="IRDAZbnhrmjxmqdq8_ro-9" value="Public IP" style="endArrow=classic;html=1;rounded=0;entryX=0;entryY=0.5;entryDx=0;entryDy=0;entryPerimeter=0;" parent="1" target="bp-vKxV_hlAgK0k2TYMo-7" edge="1">
          <mxGeometry width="50" height="50" relative="1" as="geometry">
            <mxPoint x="379.5" y="160" as="sourcePoint" />
            <mxPoint x="379.5" y="230" as="targetPoint" />
          </mxGeometry>
        </mxCell>
        <mxCell id="IGtKASbwkltZqIFQSp29-2" value="&lt;font style=&quot;font-size: 20px;&quot;&gt;Master&lt;/font&gt;" style="shape=datastore;whiteSpace=wrap;html=1;strokeColor=#004C99;strokeWidth=2;" parent="1" vertex="1">
          <mxGeometry x="178.45999999999998" y="610" width="70" height="90" as="geometry" />
        </mxCell>
        <mxCell id="bp-vKxV_hlAgK0k2TYMo-1" value="Server1" style="sketch=0;outlineConnect=0;fontColor=#232F3E;gradientColor=none;fillColor=#009900;strokeColor=none;dashed=0;verticalLabelPosition=bottom;verticalAlign=top;align=center;html=1;fontSize=12;fontStyle=0;aspect=fixed;pointerEvents=1;shape=mxgraph.aws4.traditional_server;strokeWidth=1;" parent="1" vertex="1">
          <mxGeometry x="254.68999999999997" y="368.67" width="58.46" height="101.33" as="geometry" />
        </mxCell>
        <mxCell id="bp-vKxV_hlAgK0k2TYMo-2" value="Server2" style="sketch=0;outlineConnect=0;fontColor=#232F3E;gradientColor=none;fillColor=#009900;strokeColor=none;dashed=0;verticalLabelPosition=bottom;verticalAlign=top;align=center;html=1;fontSize=12;fontStyle=0;aspect=fixed;pointerEvents=1;shape=mxgraph.aws4.traditional_server;strokeWidth=1;" parent="1" vertex="1">
          <mxGeometry x="330" y="368.67" width="58.46" height="101.33" as="geometry" />
        </mxCell>
        <mxCell id="bp-vKxV_hlAgK0k2TYMo-7" value="Load Balancer" style="sketch=0;points=[[0.015,0.015,0],[0.985,0.015,0],[0.985,0.985,0],[0.015,0.985,0],[0.25,0,0],[0.5,0,0],[0.75,0,0],[1,0.25,0],[1,0.5,0],[1,0.75,0],[0.75,1,0],[0.5,1,0],[0.25,1,0],[0,0.75,0],[0,0.5,0],[0,0.25,0]];verticalLabelPosition=top;html=1;verticalAlign=bottom;aspect=fixed;align=center;pointerEvents=1;shape=mxgraph.cisco19.rect;prIcon=load_balancer;fillColor=#FAFAFA;strokeColor=#005073;labelPosition=center;rotation=90;textDirection=ltr;" parent="1" vertex="1">
          <mxGeometry x="348" y="230" width="64" height="50" as="geometry" />
        </mxCell>
        <mxCell id="bp-vKxV_hlAgK0k2TYMo-8" value="&lt;span style=&quot;font-size: 12px; text-wrap: wrap; background-color: rgb(251, 251, 251);&quot;&gt;Private IP&lt;/span&gt;" style="endArrow=classic;html=1;rounded=0;exitX=1;exitY=0.5;exitDx=0;exitDy=0;exitPerimeter=0;entryX=0.25;entryY=0;entryDx=0;entryDy=0;" parent="1" source="bp-vKxV_hlAgK0k2TYMo-7" target="bp-vKxV_hlAgK0k2TYMo-3" edge="1">
          <mxGeometry width="50" height="50" relative="1" as="geometry">
            <mxPoint x="190" y="300" as="sourcePoint" />
            <mxPoint x="240" y="250" as="targetPoint" />
          </mxGeometry>
        </mxCell>
        <mxCell id="bp-vKxV_hlAgK0k2TYMo-9" value="&lt;span style=&quot;font-size: 12px; text-wrap: wrap; background-color: rgb(251, 251, 251);&quot;&gt;Private IP&lt;/span&gt;" style="endArrow=classic;html=1;rounded=0;exitX=1;exitY=0.5;exitDx=0;exitDy=0;exitPerimeter=0;entryX=0.75;entryY=0;entryDx=0;entryDy=0;" parent="1" source="bp-vKxV_hlAgK0k2TYMo-7" target="bp-vKxV_hlAgK0k2TYMo-3" edge="1">
          <mxGeometry width="50" height="50" relative="1" as="geometry">
            <mxPoint x="359" y="289" as="sourcePoint" />
            <mxPoint x="404" y="369" as="targetPoint" />
          </mxGeometry>
        </mxCell>
        <mxCell id="u_6Jhnb3s3K0sa4x8jdL-1" value="&lt;font style=&quot;font-size: 20px;&quot;&gt;Slave1&lt;/font&gt;" style="shape=datastore;whiteSpace=wrap;html=1;strokeColor=#004C99;strokeWidth=2;" parent="1" vertex="1">
          <mxGeometry x="343.46" y="610" width="70" height="90" as="geometry" />
        </mxCell>
        <mxCell id="u_6Jhnb3s3K0sa4x8jdL-2" value="&lt;font style=&quot;font-size: 20px;&quot;&gt;SlaveN&lt;/font&gt;" style="shape=datastore;whiteSpace=wrap;html=1;strokeColor=#004C99;strokeWidth=2;" parent="1" vertex="1">
          <mxGeometry x="353.46" y="620" width="70" height="90" as="geometry" />
        </mxCell>
        <mxCell id="u_6Jhnb3s3K0sa4x8jdL-3" value="Replication" style="endArrow=classic;startArrow=classic;html=1;rounded=0;exitX=1;exitY=0.5;exitDx=0;exitDy=0;entryX=0;entryY=0.5;entryDx=0;entryDy=0;" parent="1" source="IGtKASbwkltZqIFQSp29-2" target="u_6Jhnb3s3K0sa4x8jdL-1" edge="1">
          <mxGeometry width="50" height="50" relative="1" as="geometry">
            <mxPoint x="318.46" y="480" as="sourcePoint" />
            <mxPoint x="368.46" y="430" as="targetPoint" />
          </mxGeometry>
        </mxCell>
        <mxCell id="u_6Jhnb3s3K0sa4x8jdL-5" value="Write" style="endArrow=classic;html=1;rounded=0;entryX=0.5;entryY=0;entryDx=0;entryDy=0;exitX=0.5;exitY=1;exitDx=0;exitDy=0;" parent="1" source="bp-vKxV_hlAgK0k2TYMo-3" target="IGtKASbwkltZqIFQSp29-2" edge="1">
          <mxGeometry width="50" height="50" relative="1" as="geometry">
            <mxPoint x="333" y="480" as="sourcePoint" />
            <mxPoint x="305" y="570" as="targetPoint" />
          </mxGeometry>
        </mxCell>
        <mxCell id="u_6Jhnb3s3K0sa4x8jdL-7" value="Read" style="endArrow=classic;html=1;rounded=0;entryX=0.5;entryY=0;entryDx=0;entryDy=0;dashed=1;exitX=0.5;exitY=1;exitDx=0;exitDy=0;" parent="1" source="bp-vKxV_hlAgK0k2TYMo-3" target="u_6Jhnb3s3K0sa4x8jdL-1" edge="1">
          <mxGeometry width="50" height="50" relative="1" as="geometry">
            <mxPoint x="353" y="500" as="sourcePoint" />
            <mxPoint x="325" y="590" as="targetPoint" />
          </mxGeometry>
        </mxCell>
        <mxCell id="u_6Jhnb3s3K0sa4x8jdL-9" value="Auto scale" style="text;html=1;align=center;verticalAlign=middle;whiteSpace=wrap;rounded=0;fontSize=18;" parent="1" vertex="1">
          <mxGeometry x="520" y="409.34" width="95" height="30" as="geometry" />
        </mxCell>
        <mxCell id="ZAImQmK_n9Z3y-bCYSJ8-1" value="CDN" style="image;aspect=fixed;html=1;points=[];align=center;fontSize=12;image=img/lib/azure2/app_services/CDN_Profiles.svg;" parent="1" vertex="1">
          <mxGeometry x="212" y="80" width="68" height="40" as="geometry" />
        </mxCell>
        <mxCell id="ZAImQmK_n9Z3y-bCYSJ8-2" value="" style="endArrow=classic;html=1;rounded=0;" parent="1" source="IRDAZbnhrmjxmqdq8_ro-3" target="ZAImQmK_n9Z3y-bCYSJ8-1" edge="1">
          <mxGeometry width="50" height="50" relative="1" as="geometry">
            <mxPoint x="400" y="450" as="sourcePoint" />
            <mxPoint x="450" y="400" as="targetPoint" />
          </mxGeometry>
        </mxCell>
        <mxCell id="ZAImQmK_n9Z3y-bCYSJ8-3" value="Cache" style="outlineConnect=0;dashed=0;verticalLabelPosition=bottom;verticalAlign=top;align=center;html=1;shape=mxgraph.aws3.cache_node;fillColor=#2E73B8;gradientColor=none;" parent="1" vertex="1">
          <mxGeometry x="470" y="623.5" width="60" height="63" as="geometry" />
        </mxCell>
        <mxCell id="ZAImQmK_n9Z3y-bCYSJ8-5" value="" style="endArrow=classic;html=1;rounded=0;exitX=0.5;exitY=1;exitDx=0;exitDy=0;" parent="1" source="bp-vKxV_hlAgK0k2TYMo-3" target="ZAImQmK_n9Z3y-bCYSJ8-3" edge="1">
          <mxGeometry width="50" height="50" relative="1" as="geometry">
            <mxPoint x="320" y="462" as="sourcePoint" />
            <mxPoint x="258" y="530" as="targetPoint" />
          </mxGeometry>
        </mxCell>
        <mxCell id="gn3RjjWk8DFoDF5kcvNO-1" value="ServerN" style="sketch=0;outlineConnect=0;fontColor=#232F3E;gradientColor=none;fillColor=#009900;strokeColor=none;dashed=0;verticalLabelPosition=bottom;verticalAlign=top;align=center;html=1;fontSize=12;fontStyle=0;aspect=fixed;pointerEvents=1;shape=mxgraph.aws4.traditional_server;strokeWidth=1;" vertex="1" parent="1">
          <mxGeometry x="448.46" y="368.67" width="58.46" height="101.33" as="geometry" />
        </mxCell>
        <mxCell id="gn3RjjWk8DFoDF5kcvNO-2" value="&lt;font style=&quot;font-size: 24px;&quot;&gt;...&lt;/font&gt;" style="text;html=1;align=center;verticalAlign=middle;whiteSpace=wrap;rounded=0;" vertex="1" parent="1">
          <mxGeometry x="390" y="410" width="60" height="30" as="geometry" />
        </mxCell>
        <mxCell id="gn3RjjWk8DFoDF5kcvNO-3" value="NoSQL&lt;div&gt;(Shared storage)&lt;/div&gt;" style="outlineConnect=0;dashed=0;verticalLabelPosition=bottom;verticalAlign=top;align=center;html=1;shape=mxgraph.aws3.dynamo_db;fillColor=#2E73B8;gradientColor=none;" vertex="1" parent="1">
          <mxGeometry x="560" y="615" width="72" height="81" as="geometry" />
        </mxCell>
        <mxCell id="gn3RjjWk8DFoDF5kcvNO-4" value="" style="endArrow=classic;html=1;rounded=0;" edge="1" parent="1" target="gn3RjjWk8DFoDF5kcvNO-3">
          <mxGeometry width="50" height="50" relative="1" as="geometry">
            <mxPoint x="380" y="500" as="sourcePoint" />
            <mxPoint x="486" y="634" as="targetPoint" />
          </mxGeometry>
        </mxCell>
      </root>
    </mxGraphModel>
  </diagram>
</mxfile>
